<?xml version="1.0" standalone="no"?>
<!DOCTYPE svg PUBLIC "-//W3C//DTD SVG 20010904//EN"
 "http://www.w3.org/TR/2001/REC-SVG-20010904/DTD/svg10.dtd">
<svg version="1.0" xmlns="http://www.w3.org/2000/svg"
 width="700.000000pt" height="700.000000pt" viewBox="0 0 700.000000 700.000000"
 preserveAspectRatio="xMidYMid meet">
<metadata>
Created by potrace 1.11, written by Peter Selinger 2001-2013
</metadata>
<g transform="translate(0.000000,700.000000) scale(0.100000,-0.100000)"
fill="#000000" stroke="none">
<path d="M3278 6995 c-2 -1 -39 -5 -83 -9 -89 -7 -144 -13 -225 -26 -30 -5
-75 -12 -100 -15 -24 -4 -47 -8 -51 -10 -3 -2 -21 -7 -40 -10 -277 -48 -743
-225 -1011 -382 -140 -83 -204 -125 -313 -204 -414 -301 -741 -664 -995 -1104
-47 -83 -170 -327 -170 -340 0 -3 -9 -24 -20 -48 -57 -123 -157 -435 -186
-582 -2 -11 -10 -54 -19 -95 -29 -147 -36 -200 -52 -370 -15 -165 -8 -592 12
-711 2 -13 6 -46 9 -74 9 -78 22 -152 51 -285 21 -96 91 -339 114 -395 5 -11
25 -65 46 -120 50 -132 181 -398 250 -508 30 -49 55 -92 55 -97 0 -4 3 -10 8
-12 4 -2 33 -41 64 -88 50 -75 208 -278 256 -329 151 -160 272 -278 367 -356
33 -28 62 -52 65 -55 31 -33 389 -280 407 -280 3 0 14 -6 22 -14 26 -23 297
-158 411 -205 277 -114 590 -201 855 -236 22 -2 56 -7 75 -10 186 -26 698 -27
838 0 16 3 104 15 147 20 61 8 206 40 322 70 472 126 899 338 1283 640 158
124 369 326 475 455 21 25 40 47 44 50 4 3 22 25 41 50 19 25 38 50 43 55 121
150 286 418 384 625 110 230 215 534 259 745 16 79 54 301 59 350 4 33 9 71
11 85 9 48 11 525 4 605 -17 172 -22 220 -25 225 -2 3 -6 30 -10 60 -9 75 -69
337 -99 435 -111 365 -272 700 -481 1000 -468 673 -1154 1159 -1944 1380 -93
26 -302 71 -371 80 -19 3 -46 7 -60 10 -13 2 -52 7 -86 11 -33 3 -74 8 -90 10
-32 5 -540 14 -546 9z"/>
</g>
</svg>
